<svg xmlns="http://www.w3.org/2000/svg" width="21.048" height="25.433" viewBox="0 0 21.048 25.433">
  <g id="icon" transform="translate(-38.33)">
    <path id="패스_33" data-name="패스 33" d="M333.1,105.48a.565.565,0,0,1-.462-.89l2.859-4.069-2.859-4.069a.565.565,0,0,1,.925-.65l3.088,4.394a.566.566,0,0,1,0,.65l-3.088,4.394A.565.565,0,0,1,333.1,105.48Z" transform="translate(-277.379 -90.095)" fill="#fff"/>
    <path id="패스_34" data-name="패스 34" d="M52.44,8.5a.565.565,0,0,0,.565-.565V.565A.565.565,0,0,0,52.44,0H38.884c-.01,0-.021,0-.031,0a.551.551,0,0,0-.1.016l-.038.012a.552.552,0,0,0-.092.04c-.007,0-.015.005-.022.01l-.009.007a.575.575,0,0,0-.1.081c-.005.005-.009.012-.014.017a.59.59,0,0,0-.064.087c-.007.011-.013.023-.019.034A.574.574,0,0,0,38.357.4c0,.012-.008.023-.011.035a.553.553,0,0,0-.017.132V20.286a.559.559,0,0,0,.019.138c0,.012.007.023.011.035a.572.572,0,0,0,.043.1c.005.009.01.019.015.028a.572.572,0,0,0,.085.1l.02.016a.568.568,0,0,0,.094.067l.016.012L47.4,25.368a.56.56,0,0,0,.262.064.565.565,0,0,0,.565-.565V20.851H52.44a.565.565,0,0,0,.565-.565v-7.57a.565.565,0,1,0-1.13,0v7h-3.65V5.147a.565.565,0,0,0-.3-.5L41.2,1.13H51.875V7.938A.565.565,0,0,0,52.44,8.5Z" fill="#fff"/>
    <path id="패스_35" data-name="패스 35" d="M234.755,173.507h-9.242a.565.565,0,1,1,0-1.13h9.242a.565.565,0,1,1,0,1.13Z" transform="translate(-175.943 -162.516)" fill="#fff"/>
  </g>
</svg>
