<svg xmlns="http://www.w3.org/2000/svg" width="26.129" height="26.129" viewBox="0 0 26.129 26.129">
  <path id="패스_68" data-name="패스 68" d="M22.761,2.041H20.413V.817a.817.817,0,0,0-1.633,0V2.041H7.349V.817a.817.817,0,0,0-1.633,0V2.041H3.368A3.372,3.372,0,0,0,0,5.409V22.761a3.372,3.372,0,0,0,3.368,3.368H22.761a3.372,3.372,0,0,0,3.368-3.368V5.409A3.372,3.372,0,0,0,22.761,2.041ZM24.5,22.761A1.735,1.735,0,0,1,22.761,24.5H3.368a1.735,1.735,0,0,1-1.735-1.735V9.237a.255.255,0,0,1,.255-.255H24.241a.255.255,0,0,1,.255.255Z" transform="translate(0)" fill="#fff"/>
</svg>
