<svg xmlns="http://www.w3.org/2000/svg" width="22" height="19.518" viewBox="0 0 22 19.518">
  <g id="XMLID_1_" transform="translate(-15.388 -19.034)">
    <path id="XMLID_4_" d="M31.644,19.327a10.627,10.627,0,0,1-7.332.473c-3.987-1.385-5.778-.845-7.5,1.25a1.011,1.011,0,0,0-.98,0,.973.973,0,0,0-.3,1.318l9.7,15.745a.916.916,0,0,0,.811.439.954.954,0,0,0,.507-.135.973.973,0,0,0,.3-1.318l-4.257-6.96c1.689-2.061,3.514-2.635,7.467-1.25a10.669,10.669,0,0,0,7.332-.473Z" transform="translate(0 0)" fill="#fff"/>
  </g>
</svg>
