<svg xmlns="http://www.w3.org/2000/svg" width="64" height="61.334" viewBox="0 0 64 61.334">
  <path id="github" d="M32,.5C14.32.5,0,14.58,0,31.945A31.5,31.5,0,0,0,21.88,61.78c1.6.3,2.187-.677,2.187-1.512,0-.747-.027-2.725-.04-5.347-8.9,1.9-10.779-4.219-10.779-4.219-1.456-3.629-3.56-4.6-3.56-4.6-2.9-1.949.224-1.909.224-1.909a6.694,6.694,0,0,1,4.9,3.24c2.853,4.808,7.491,3.419,9.32,2.616a6.658,6.658,0,0,1,2.027-4.205c-7.107-.787-14.576-3.491-14.576-15.539a12.014,12.014,0,0,1,3.293-8.437,11,11,0,0,1,.28-8.323s2.68-.843,8.8,3.224a30.681,30.681,0,0,1,16,0c6.08-4.067,8.76-3.224,8.76-3.224a11.306,11.306,0,0,1,.32,8.323,12.063,12.063,0,0,1,3.28,8.437c0,12.08-7.48,14.739-14.6,15.512,1.12.944,2.16,2.872,2.16,5.819,0,4.208-.04,7.589-.04,8.611,0,.824.56,1.808,2.2,1.493A31.4,31.4,0,0,0,64,31.945C64,14.58,49.672.5,32,.5Z" transform="translate(0 -0.5)" fill="#fff"/>
</svg>
