<svg xmlns="http://www.w3.org/2000/svg" width="15.268" height="18.449" viewBox="0 0 15.268 18.449">
  <g id="icon" transform="translate(0 0)">
    <path id="패스_33" data-name="패스 33" d="M332.947,102.756a.41.41,0,0,1-.335-.646l2.074-2.952-2.074-2.952a.41.41,0,0,1,.671-.471l2.24,3.187a.411.411,0,0,1,0,.471l-2.24,3.187A.409.409,0,0,1,332.947,102.756Z" transform="translate(-320.329 -91.596)" fill="#bbbdbf"/>
    <path id="패스_34" data-name="패스 34" d="M48.566,6.169a.41.41,0,0,0,.41-.41V.41a.41.41,0,0,0-.41-.41H38.732l-.023,0a.4.4,0,0,0-.073.012l-.027.008a.4.4,0,0,0-.066.029l-.016.007-.006.005a.417.417,0,0,0-.074.059l-.01.013A.429.429,0,0,0,38.39.2l-.014.025a.416.416,0,0,0-.026.065c0,.009-.006.017-.008.026a.4.4,0,0,0-.013.1V14.716a.405.405,0,0,0,.014.1c0,.009.005.017.008.025a.415.415,0,0,0,.031.072c0,.007.007.014.011.02a.415.415,0,0,0,.062.076l.014.012a.412.412,0,0,0,.068.049l.012.009L44.908,18.4a.406.406,0,0,0,.19.047.41.41,0,0,0,.41-.41V15.126h3.058a.41.41,0,0,0,.41-.41V9.225a.41.41,0,1,0-.82,0v5.081H45.507V3.734a.41.41,0,0,0-.22-.363L40.409.82h7.747V5.759A.41.41,0,0,0,48.566,6.169Z" transform="translate(-38.329 0)" fill="#bbbdbf"/>
    <path id="패스_35" data-name="패스 35" d="M232.062,173.2h-6.7a.41.41,0,0,1,0-.82h6.7a.41.41,0,1,1,0,.82Z" transform="translate(-217.204 -165.223)" fill="#bbbdbf"/>
  </g>
</svg>
